<?xml version="1.0" encoding="UTF-8"?>
<svg version="1.1" xmlns="http://www.w3.org/2000/svg" viewBox="0 0 227 283">
<path d="M0 0 C1.31307129 0.00644531 2.62614258 0.01289062 3.97900391 0.01953125 C28.65341905 0.48033861 49.1775624 10.02293023 66.9296875 26.93359375 C83.72097185 44.62544872 92.00045005 66.84727854 91.875 91.125 C91.86533203 93.09460693 91.86533203 93.09460693 91.85546875 95.10400391 C91.39466139 119.77841905 81.85206977 140.3025624 64.94140625 158.0546875 C49.498806 172.71121122 28.844999 182.65698672 7.375 182.5 C7.38499275 184.21888176 7.38499275 184.21888176 7.39518738 185.9724884 C7.45593611 196.75845806 7.50094262 207.54439312 7.53043652 218.33049488 C7.54610923 223.87608265 7.56737688 229.42153258 7.60131836 234.96704102 C7.63385442 240.31624905 7.65184091 245.66532431 7.65963173 251.01462364 C7.66518558 253.05803201 7.67603057 255.10143291 7.69219017 257.14478493 C7.71388791 260.00138828 7.71697013 262.85743916 7.71557617 265.71411133 C7.726362 266.56359344 7.73714783 267.41307556 7.7482605 268.28829956 C7.71756601 274.08056282 7.71756601 274.08056282 5.97354603 276.21593761 C3.98417285 277.81393931 2.9022401 277.90371864 0.375 277.875 C-0.305625 277.88273437 -0.98625 277.89046875 -1.6875 277.8984375 C-4.21119962 277.37945088 -5.00803079 276.47981407 -6.625 274.5 C-6.90575915 271.50111511 -7.0036444 268.71233103 -6.96557617 265.71411133 C-6.96623329 264.36746147 -6.96623329 264.36746147 -6.96690369 262.99360657 C-6.96481179 260.02286109 -6.94146176 257.05267828 -6.91796875 254.08203125 C-6.91237422 252.02365935 -6.90810345 249.96528345 -6.90510559 247.90690613 C-6.89364555 242.48659252 -6.86416829 237.06651968 -6.83099365 231.64630127 C-6.8003178 226.11644752 -6.78660556 220.58655491 -6.77148438 215.05664062 C-6.7392998 204.20432124 -6.68808936 193.35218063 -6.625 182.5 C-7.89553223 182.50684814 -9.16606445 182.51369629 -10.47509766 182.52075195 C-31.48745075 182.63400814 -51.49269799 170.05722347 -66.1796875 156.06640625 C-82.97097185 138.37455128 -91.25045005 116.15272146 -91.125 91.875 C-91.11855469 90.56192871 -91.11210938 89.24885742 -91.10546875 87.89599609 C-90.64466139 63.22158095 -81.10206977 42.6974376 -64.19140625 24.9453125 C-46.49955128 8.15402815 -24.27772146 -0.12545005 0 0 Z " fill="#EDEDED" transform="translate(113.625,5.5)"/>
<path d="M0 0 C1.31307129 0.00644531 2.62614258 0.01289062 3.97900391 0.01953125 C28.65341905 0.48033861 49.1775624 10.02293023 66.9296875 26.93359375 C83.72097185 44.62544872 92.00045005 66.84727854 91.875 91.125 C91.86533203 93.09460693 91.86533203 93.09460693 91.85546875 95.10400391 C91.39466139 119.77841905 81.85206977 140.3025624 64.94140625 158.0546875 C49.498806 172.71121122 28.844999 182.65698672 7.375 182.5 C7.38499275 184.21888176 7.38499275 184.21888176 7.39518738 185.9724884 C7.45593611 196.75845806 7.50094262 207.54439312 7.53043652 218.33049488 C7.54610923 223.87608265 7.56737688 229.42153258 7.60131836 234.96704102 C7.63385442 240.31624905 7.65184091 245.66532431 7.65963173 251.01462364 C7.66518558 253.05803201 7.67603057 255.10143291 7.69219017 257.14478493 C7.71388791 260.00138828 7.71697013 262.85743916 7.71557617 265.71411133 C7.726362 266.56359344 7.73714783 267.41307556 7.7482605 268.28829956 C7.71756601 274.08056282 7.71756601 274.08056282 5.97354603 276.21593761 C3.98417285 277.81393931 2.9022401 277.90371864 0.375 277.875 C-0.305625 277.88273437 -0.98625 277.89046875 -1.6875 277.8984375 C-4.21119962 277.37945088 -5.00803079 276.47981407 -6.625 274.5 C-6.90575915 271.50111511 -7.0036444 268.71233103 -6.96557617 265.71411133 C-6.96623329 264.36746147 -6.96623329 264.36746147 -6.96690369 262.99360657 C-6.96481179 260.02286109 -6.94146176 257.05267828 -6.91796875 254.08203125 C-6.91237422 252.02365935 -6.90810345 249.96528345 -6.90510559 247.90690613 C-6.89364555 242.48659252 -6.86416829 237.06651968 -6.83099365 231.64630127 C-6.8003178 226.11644752 -6.78660556 220.58655491 -6.77148438 215.05664062 C-6.7392998 204.20432124 -6.68808936 193.35218063 -6.625 182.5 C-7.89553223 182.50684814 -9.16606445 182.51369629 -10.47509766 182.52075195 C-31.48745075 182.63400814 -51.49269799 170.05722347 -66.1796875 156.06640625 C-82.97097185 138.37455128 -91.25045005 116.15272146 -91.125 91.875 C-91.11855469 90.56192871 -91.11210938 89.24885742 -91.10546875 87.89599609 C-90.64466139 63.22158095 -81.10206977 42.6974376 -64.19140625 24.9453125 C-46.49955128 8.15402815 -24.27772146 -0.12545005 0 0 Z M-49.625 32.5 C-50.47191406 33.13421875 -50.47191406 33.13421875 -51.3359375 33.78125 C-65.58926239 44.87433544 -74.1402616 63.89874963 -76.625 81.5 C-78.66527547 101.47416293 -73.35845644 120.83513856 -61.5 137.0625 C-60.55217042 138.21703709 -59.59446606 139.36357034 -58.625 140.5 C-57.99078125 141.34691406 -57.99078125 141.34691406 -57.34375 142.2109375 C-46.2792859 156.4274873 -27.20846876 165.07730034 -9.625 167.5 C10.95682696 169.49785364 31.56012932 164.17825628 47.7265625 150.90625 C48.27054687 150.4421875 48.81453125 149.978125 49.375 149.5 C49.93960938 149.0771875 50.50421875 148.654375 51.0859375 148.21875 C65.34600152 137.12041963 73.87552714 118.10462049 76.375 100.5 C78.30324538 80.91739481 73.8105618 61.16093534 61.75 45.375 C60.6358751 44.0739414 59.51180413 42.78129003 58.375 41.5 C57.70791016 40.62214844 57.70791016 40.62214844 57.02734375 39.7265625 C46.01206536 25.53194719 26.90278414 16.91502727 9.375 14.5 C-12.10563187 12.41490043 -33.07737614 18.38354363 -49.625 32.5 Z " fill="#FEFEFE" transform="translate(113.625,5.5)"/>
<path d="M0 0 C1.22589844 0.01353516 1.22589844 0.01353516 2.4765625 0.02734375 C3.10304687 0.03894531 3.72953125 0.05054688 4.375 0.0625 C10.38668555 10.45856737 16.355023 20.86301415 21.92382812 31.50415039 C25.15933981 37.68190065 28.47570705 43.81390758 31.8125 49.9375 C32.59367187 51.3750061 32.59367187 51.3750061 33.390625 52.84155273 C33.87917969 53.73688721 34.36773437 54.63222168 34.87109375 55.5546875 C35.30607178 56.35245605 35.7410498 57.15022461 36.18920898 57.97216797 C37.17686595 59.71322601 38.26466403 61.39699604 39.375 63.0625 C39 65.75 39 65.75 38.375 68.0625 C36.05639648 67.85888672 36.05639648 67.85888672 33.375 67.0625 C31.80102539 65.01220703 31.80102539 65.01220703 30.47265625 62.3203125 C29.97443359 61.33546875 29.47621094 60.350625 28.96289062 59.3359375 C28.45951172 58.29695313 27.95613281 57.25796875 27.4375 56.1875 C26.42942614 54.16875081 25.42031344 52.15052003 24.41015625 50.1328125 C23.91660645 49.13540039 23.42305664 48.13798828 22.91455078 47.11035156 C20.51718823 42.36428843 17.95587648 37.71071413 15.375 33.0625 C10.28750113 33.67231958 10.28750113 33.67231958 6.26171875 36.57421875 C5.74061523 37.08243164 5.21951172 37.59064453 4.68261719 38.11425781 C3.88065918 38.9239502 3.88065918 38.9239502 3.0625 39.75 C1.91922039 40.84648249 0.77208347 41.93895743 -0.37890625 43.02734375 C-0.93336426 43.55183105 -1.48782227 44.07631836 -2.05908203 44.61669922 C-6.49935089 48.71636748 -11.08411661 52.2188999 -17.125 53.375 C-19.36328125 53.22265625 -19.36328125 53.22265625 -21.625 52.0625 C-24.86943714 48.01098895 -27.25817188 43.70080777 -29.59814453 39.08105469 C-30.54359969 37.22251374 -31.54853083 35.39454735 -32.55859375 33.5703125 C-36.72340236 25.85627901 -36.72340236 25.85627901 -36.2734375 22.2265625 C-35.95246094 21.15535156 -35.95246094 21.15535156 -35.625 20.0625 C-34.34625 19.918125 -33.0675 19.77375 -31.75 19.625 C-26.22651825 18.40620356 -23.17845036 15.37945199 -19.19140625 11.5234375 C-16.60556728 9.04386588 -13.92564888 6.79495968 -11.125 4.5625 C-10.3103125 3.9128125 -9.495625 3.263125 -8.65625 2.59375 C-5.54984875 0.25200136 -3.83603134 -0.05480045 0 0 Z " fill="#050505" transform="translate(92.625,62.9375)"/>
<path d="M0 0 C5.45979374 -0.97496317 8.34556547 -0.1500566 12.9375 2.9375 C17.33787755 6.26313096 21.14080149 10.03030785 24.9765625 13.98046875 C29.57910592 18.57412695 33.35597413 20.46847793 40 21 C41.19530176 23.85175257 41.0445546 24.89020235 39.86010742 27.80908203 C39.28107666 28.86466309 38.7020459 29.92024414 38.10546875 31.0078125 C37.47962891 32.15894531 36.85378906 33.31007812 36.20898438 34.49609375 C35.87729248 35.09147949 35.54560059 35.68686523 35.20385742 36.30029297 C34.19058184 38.11946704 33.19445254 39.94718909 32.20117188 41.77734375 C27.32043866 50.67956134 27.32043866 50.67956134 25 53 C19.48517808 53.88631067 16.62982124 53.136561 12 50 C7.93812306 46.92715588 4.3953455 43.52486114 0.875 39.85546875 C-2.61317879 36.40362516 -6.5218853 33.77119028 -10.875 31.5 C-13 30 -13 30 -13.78637695 27.73095703 C-14.05526166 24.29353488 -13.22989082 22.78993857 -11.54296875 19.8046875 C-11.00736328 18.84175781 -10.47175781 17.87882812 -9.91992188 16.88671875 C-9.34822266 15.89285156 -8.77652344 14.89898437 -8.1875 13.875 C-7.62740234 12.87339844 -7.06730469 11.87179688 -6.49023438 10.83984375 C-4.41829934 7.15145282 -2.34728471 3.52092707 0 0 Z " fill="#040404" transform="translate(131,63)"/>
<path d="M0 0 C4.62 0 9.24 0 14 0 C14.06943354 11.94346072 14.12277746 23.88687363 14.15543652 35.83049488 C14.17110923 41.37608265 14.19237688 46.92153258 14.22631836 52.46704102 C14.25885442 57.81624905 14.27684091 63.16532431 14.28463173 68.51462364 C14.29018558 70.55803201 14.30103057 72.60143291 14.31719017 74.64478493 C14.33888791 77.50138828 14.34197013 80.35743916 14.34057617 83.21411133 C14.35675491 84.4883345 14.35675491 84.4883345 14.3732605 85.78829956 C14.34256601 91.58056282 14.34256601 91.58056282 12.59854603 93.71593761 C10.60917285 95.31393931 9.5272401 95.40371864 7 95.375 C5.9790625 95.38660156 5.9790625 95.38660156 4.9375 95.3984375 C2.41380038 94.87945088 1.61696921 93.97981407 0 92 C-0.28075915 89.00111511 -0.3786444 86.21233103 -0.34057617 83.21411133 C-0.34123329 81.86746147 -0.34123329 81.86746147 -0.34190369 80.49360657 C-0.33981179 77.52286109 -0.31646176 74.55267828 -0.29296875 71.58203125 C-0.28737422 69.52365935 -0.28310345 67.46528345 -0.28010559 65.40690613 C-0.26864555 59.98659252 -0.23916829 54.56651968 -0.20599365 49.14630127 C-0.1753178 43.61644752 -0.16160556 38.08655491 -0.14648438 32.55664062 C-0.1142998 21.70432124 -0.06308936 10.85218063 0 0 Z " fill="#000000" transform="translate(107,188)"/>
<path d="M0 0 C1.32 0.33 2.64 0.66 4 1 C4.79598996 3.30233147 5.1477357 4.56601595 4.35083008 6.90698242 C3.18440044 9.00887336 2.01652069 11.10681909 0.8125 13.1875 C0.41224609 13.92419922 0.01199219 14.66089844 -0.40039062 15.41992188 C-0.9969043 16.47083008 -0.9969043 16.47083008 -1.60546875 17.54296875 C-1.96793701 18.18258545 -2.33040527 18.82220215 -2.70385742 19.48120117 C-4.34225707 21.40105128 -5.52423645 21.71339917 -8 22 C-8.33 21.67 -8.66 21.34 -9 21 C-8.65695929 15.21210036 -6.88647503 11.37559397 -3.9375 6.5625 C-3.56044922 5.92634766 -3.18339844 5.29019531 -2.79492188 4.63476562 C-1.87359498 3.08367098 -0.93823407 1.54092657 0 0 Z " fill="#0F0F0F" transform="translate(105,109)"/>
</svg>
