<?xml version="1.0" encoding="UTF-8"?>
<svg version="1.1" xmlns="http://www.w3.org/2000/svg" viewBox="0 0 227 283">
<path d="M0 0 C1.31307129 0.00644531 2.62614258 0.01289062 3.97900391 0.01953125 C28.65341905 0.48033861 49.1775624 10.02293023 66.9296875 26.93359375 C83.72097185 44.62544872 92.00045005 66.84727854 91.875 91.125 C91.86533203 93.09460693 91.86533203 93.09460693 91.85546875 95.10400391 C91.39466139 119.77841905 81.85206977 140.3025624 64.94140625 158.0546875 C49.498806 172.71121122 28.844999 182.65698672 7.375 182.5 C7.38499275 184.21888176 7.38499275 184.21888176 7.39518738 185.9724884 C7.45593611 196.75845806 7.50094262 207.54439312 7.53043652 218.33049488 C7.54610923 223.87608265 7.56737688 229.42153258 7.60131836 234.96704102 C7.63385442 240.31624905 7.65184091 245.66532431 7.65963173 251.01462364 C7.66518558 253.05803201 7.67603057 255.10143291 7.69219017 257.14478493 C7.71388791 260.00138828 7.71697013 262.85743916 7.71557617 265.71411133 C7.726362 266.56359344 7.73714783 267.41307556 7.7482605 268.28829956 C7.71756601 274.08056282 7.71756601 274.08056282 5.97354603 276.21593761 C3.98417285 277.81393931 2.9022401 277.90371864 0.375 277.875 C-0.305625 277.88273437 -0.98625 277.89046875 -1.6875 277.8984375 C-4.21119962 277.37945088 -5.00803079 276.47981407 -6.625 274.5 C-6.90575915 271.50111511 -7.0036444 268.71233103 -6.96557617 265.71411133 C-6.96623329 264.36746147 -6.96623329 264.36746147 -6.96690369 262.99360657 C-6.96481179 260.02286109 -6.94146176 257.05267828 -6.91796875 254.08203125 C-6.91237422 252.02365935 -6.90810345 249.96528345 -6.90510559 247.90690613 C-6.89364555 242.48659252 -6.86416829 237.06651968 -6.83099365 231.64630127 C-6.8003178 226.11644752 -6.78660556 220.58655491 -6.77148438 215.05664062 C-6.7392998 204.20432124 -6.68808936 193.35218063 -6.625 182.5 C-7.89553223 182.50684814 -9.16606445 182.51369629 -10.47509766 182.52075195 C-31.48745075 182.63400814 -51.49269799 170.05722347 -66.1796875 156.06640625 C-82.97097185 138.37455128 -91.25045005 116.15272146 -91.125 91.875 C-91.11855469 90.56192871 -91.11210938 89.24885742 -91.10546875 87.89599609 C-90.64466139 63.22158095 -81.10206977 42.6974376 -64.19140625 24.9453125 C-46.49955128 8.15402815 -24.27772146 -0.12545005 0 0 Z " fill="#FBDF01" transform="translate(113.625,5.5)"/>
<path d="M0 0 C1.31307129 0.00644531 2.62614258 0.01289062 3.97900391 0.01953125 C28.65341905 0.48033861 49.1775624 10.02293023 66.9296875 26.93359375 C83.72097185 44.62544872 92.00045005 66.84727854 91.875 91.125 C91.86533203 93.09460693 91.86533203 93.09460693 91.85546875 95.10400391 C91.39466139 119.77841905 81.85206977 140.3025624 64.94140625 158.0546875 C49.498806 172.71121122 28.844999 182.65698672 7.375 182.5 C7.38499275 184.21888176 7.38499275 184.21888176 7.39518738 185.9724884 C7.45593611 196.75845806 7.50094262 207.54439312 7.53043652 218.33049488 C7.54610923 223.87608265 7.56737688 229.42153258 7.60131836 234.96704102 C7.63385442 240.31624905 7.65184091 245.66532431 7.65963173 251.01462364 C7.66518558 253.05803201 7.67603057 255.10143291 7.69219017 257.14478493 C7.71388791 260.00138828 7.71697013 262.85743916 7.71557617 265.71411133 C7.726362 266.56359344 7.73714783 267.41307556 7.7482605 268.28829956 C7.71756601 274.08056282 7.71756601 274.08056282 5.97354603 276.21593761 C3.98417285 277.81393931 2.9022401 277.90371864 0.375 277.875 C-0.305625 277.88273437 -0.98625 277.89046875 -1.6875 277.8984375 C-4.21119962 277.37945088 -5.00803079 276.47981407 -6.625 274.5 C-6.90575915 271.50111511 -7.0036444 268.71233103 -6.96557617 265.71411133 C-6.96623329 264.36746147 -6.96623329 264.36746147 -6.96690369 262.99360657 C-6.96481179 260.02286109 -6.94146176 257.05267828 -6.91796875 254.08203125 C-6.91237422 252.02365935 -6.90810345 249.96528345 -6.90510559 247.90690613 C-6.89364555 242.48659252 -6.86416829 237.06651968 -6.83099365 231.64630127 C-6.8003178 226.11644752 -6.78660556 220.58655491 -6.77148438 215.05664062 C-6.7392998 204.20432124 -6.68808936 193.35218063 -6.625 182.5 C-7.89553223 182.50684814 -9.16606445 182.51369629 -10.47509766 182.52075195 C-31.48745075 182.63400814 -51.49269799 170.05722347 -66.1796875 156.06640625 C-82.97097185 138.37455128 -91.25045005 116.15272146 -91.125 91.875 C-91.11855469 90.56192871 -91.11210938 89.24885742 -91.10546875 87.89599609 C-90.64466139 63.22158095 -81.10206977 42.6974376 -64.19140625 24.9453125 C-46.49955128 8.15402815 -24.27772146 -0.12545005 0 0 Z M-51.625 35.5 C-52.53765625 36.27537109 -52.53765625 36.27537109 -53.46875 37.06640625 C-62.48536664 45.24283816 -68.71748899 57.12990914 -72.625 68.5 C-72.94339844 69.39460938 -73.26179688 70.28921875 -73.58984375 71.2109375 C-79.15663283 89.52746932 -75.44827846 109.47161401 -67.625 126.5 C-57.00485165 146.2800263 -39.64837773 159.39485825 -18.4375 166 C-5.25656936 169.14164131 9.56332901 169.02497316 22.375 164.5 C23.43847656 164.14808594 24.50195312 163.79617187 25.59765625 163.43359375 C46.01605914 156.19759834 60.66752559 142.0262973 70.0234375 122.6640625 C77.75863235 104.55565838 79.50694472 84.09113679 72.375 65.5 C68.33872072 55.82411571 63.47664956 47.2842212 56.375 39.5 C55.85808594 38.8915625 55.34117187 38.283125 54.80859375 37.65625 C43.32068959 24.98788451 24.68514383 16.74442052 7.85107422 15.28051758 C-14.59771577 14.2427125 -34.81281893 20.16202138 -51.625 35.5 Z " fill="#FEFEFD" transform="translate(113.625,5.5)"/>
<path d="M0 0 C2.5625 0.1875 2.5625 0.1875 4.5625 2.1875 C5.41521173 10.09752327 0.80997725 16.91808935 -3.83398438 23.0234375 C-5.8652568 25.54062215 -7.93572042 28.02369132 -10.00805664 30.50708008 C-20.45036654 43.28275627 -22.38413195 54.33361114 -23.4375 71.1875 C-35.6475 71.1875 -47.8575 71.1875 -60.4375 71.1875 C-60.9325 66.2375 -60.9325 66.2375 -61.4375 61.1875 C-63.4175 66.1375 -63.4175 66.1375 -65.4375 71.1875 C-69.3975 71.1875 -73.3575 71.1875 -77.4375 71.1875 C-76.81518515 65.60889189 -75.46424844 60.56678512 -73.6875 55.25 C-73.44773437 54.49009766 -73.20796875 53.73019531 -72.9609375 52.94726562 C-70.20593848 44.63256496 -66.46100975 37.35262176 -58.4375 33.1875 C-53.67487752 31.23571821 -49.2671467 30.92429649 -44.1875 30.8125 C-33.46053596 30.35591109 -25.51829434 27.40697119 -17.4375 20.1875 C-14.74426474 17.06093291 -12.36569449 13.75346748 -10 10.375 C-8.77242473 8.65994913 -7.54457537 6.94509441 -6.31640625 5.23046875 C-5.52085327 4.10161255 -5.52085327 4.10161255 -4.70922852 2.94995117 C-2.73229456 0.2101765 -2.73229456 0.2101765 0 0 Z " fill="#050500" transform="translate(149.4375,63.8125)"/>
<path d="M0 0 C4.62 0 9.24 0 14 0 C14.06943354 11.94346072 14.12277746 23.88687363 14.15543652 35.83049488 C14.17110923 41.37608265 14.19237688 46.92153258 14.22631836 52.46704102 C14.25885442 57.81624905 14.27684091 63.16532431 14.28463173 68.51462364 C14.29018558 70.55803201 14.30103057 72.60143291 14.31719017 74.64478493 C14.33888791 77.50138828 14.34197013 80.35743916 14.34057617 83.21411133 C14.35675491 84.4883345 14.35675491 84.4883345 14.3732605 85.78829956 C14.34256601 91.58056282 14.34256601 91.58056282 12.59854603 93.71593761 C10.60917285 95.31393931 9.5272401 95.40371864 7 95.375 C5.9790625 95.38660156 5.9790625 95.38660156 4.9375 95.3984375 C2.41380038 94.87945088 1.61696921 93.97981407 0 92 C-0.28075915 89.00111511 -0.3786444 86.21233103 -0.34057617 83.21411133 C-0.34123329 81.86746147 -0.34123329 81.86746147 -0.34190369 80.49360657 C-0.33981179 77.52286109 -0.31646176 74.55267828 -0.29296875 71.58203125 C-0.28737422 69.52365935 -0.28310345 67.46528345 -0.28010559 65.40690613 C-0.26864555 59.98659252 -0.23916829 54.56651968 -0.20599365 49.14630127 C-0.1753178 43.61644752 -0.16160556 38.08655491 -0.14648438 32.55664062 C-0.1142998 21.70432124 -0.06308936 10.85218063 0 0 Z " fill="#000000" transform="translate(107,188)"/>
<path d="M0 0 C4.1402585 1.46126771 7.36288255 3.5425664 10.08203125 7.0625 C12.04102934 11.19723639 11.6990827 15.57467462 11 20 C8.9489215 24.5123727 6.27536813 27.08798155 1.92578125 29.3046875 C-1.65611864 30.59794953 -4.18719102 30.48416622 -8 30 C-12.37006402 27.89900769 -15.0766581 25.35463162 -17.3046875 20.9921875 C-18.59696645 17.28959049 -18.68748623 13.84431074 -18 10 C-14.23811258 2.33153718 -8.40791204 -1.36481137 0 0 Z " fill="#070700" transform="translate(111,60)"/>
<path d="M0 0 C0.66 0.33 1.32 0.66 2 1 C-0.64 3.64 -3.28 6.28 -6 9 C-6 6 -6 6 -3.5625 3.375 C-2.716875 2.59125 -1.87125 1.8075 -1 1 C-0.67 0.67 -0.34 0.34 0 0 Z " fill="#252100" transform="translate(88,99)"/>
</svg>
